<svg width="32" height="32" viewBox="0 0 32 32" fill="none" xmlns="http://www.w3.org/2000/svg">
<g clip-path="url(#clip0)">
<path d="M16.0133 8C19.4933 8 22.5333 10.48 23.2133 13.9067L23.6133 15.9067L25.64 16.0533C27.72 16.2 29.3466 17.9333 29.3466 20C29.3466 22.2 27.5466 24 25.3466 24H8.01331C5.06664 24 2.67997 21.6133 2.67997 18.6667C2.67997 15.9333 4.71997 13.6533 7.42664 13.3733L8.85331 13.2267L9.51997 11.96C10.1317 10.7652 11.062 9.76293 12.208 9.06404C13.354 8.36515 14.671 7.99689 16.0133 8ZM16.0133 5.33334C12.16 5.33334 8.79997 7.52 7.13331 10.72C3.13331 11.1467 0.0133057 14.5467 0.0133057 18.6667C0.0133057 23.08 3.59997 26.6667 8.01331 26.6667H25.3466C29.0266 26.6667 32.0133 23.68 32.0133 20C32.0133 16.48 29.28 13.6267 25.8266 13.3867C24.9066 8.78667 20.8666 5.33334 16.0133 5.33334Z" fill="white"/>
</g>
<defs>
<clipPath id="clip0">
<rect width="32" height="32" fill="white"/>
</clipPath>
</defs>
</svg>
