<svg width="20" height="20" viewBox="0 0 20 20" fill="none" xmlns="http://www.w3.org/2000/svg">
<path d="M13.5 15.024H6.5C6.37505 15.0238 6.25455 15.0703 6.16222 15.1545C6.06988 15.2387 6.01241 15.3544 6.00112 15.4788C5.98983 15.6032 6.02554 15.7274 6.10122 15.8268C6.1769 15.9262 6.28705 15.9937 6.41 16.016L6.5 16.024H13.5C13.6249 16.0242 13.7455 15.9777 13.8378 15.8935C13.9301 15.8093 13.9876 15.6936 13.9989 15.5692C14.0102 15.4447 13.9745 15.3206 13.8988 15.2212C13.8231 15.1217 13.7129 15.0542 13.59 15.032L13.5 15.024ZM15.496 13.024H4.504C4.226 13.024 4 13.248 4 13.524C4 13.769 4.178 13.974 4.413 14.016L4.503 14.024H15.497C15.5629 14.0243 15.6283 14.0115 15.6893 13.9865C15.7503 13.9616 15.8058 13.9248 15.8526 13.8784C15.8994 13.8319 15.9366 13.7767 15.962 13.7159C15.9875 13.6551 16.0007 13.5899 16.001 13.524C16.001 13.279 15.823 13.074 15.588 13.032L15.498 13.024H15.496ZM10 3.02399C7.535 3.02399 6.137 4.59799 5.934 6.49799H5.872C4.286 6.49799 3 7.73499 3 9.25999C3 10.786 4.286 12.023 5.872 12.023H14.128C15.714 12.024 17 10.787 17 9.25999C17 7.78999 15.808 6.58999 14.303 6.50299L14.066 6.49799C13.861 4.58499 12.465 3.02399 10 3.02399ZM10 4.02399C11.65 4.02399 13.087 5.29399 13.087 7.04899C13.087 7.32699 13.341 7.54499 13.632 7.54499H14.182C15.186 7.54499 16 8.32399 16 9.28499C16 10.245 15.186 11.024 14.182 11.024H5.818C4.814 11.024 4 10.245 4 9.28399C4 8.32399 4.814 7.54499 5.818 7.54499H6.368C6.658 7.54499 6.913 7.32699 6.913 7.04899C6.913 5.27199 8.351 4.02399 10 4.02399Z" fill="black"/>
</svg>
