<svg width="40" height="40" viewBox="0 0 40 40" fill="none" xmlns="http://www.w3.org/2000/svg">
<path d="M12.7058 31.6667H27.2942C27.5654 31.6593 27.8287 31.7582 28.028 31.9423C28.2272 32.1264 28.3466 32.3812 28.3605 32.6521C28.3744 32.9231 28.2818 33.1887 28.1025 33.3923C27.9232 33.5959 27.6714 33.7213 27.4008 33.7417L27.2942 33.7467H12.7058C12.4346 33.7542 12.1713 33.6552 11.972 33.4711C11.7728 33.287 11.6534 33.0322 11.6395 32.7613C11.6256 32.4903 11.7182 32.2247 11.8975 32.0211C12.0768 31.8175 12.3286 31.6921 12.5992 31.6717L12.7058 31.6667ZM7.70583 27.5H32.2933C32.5608 27.4988 32.8184 27.6006 33.0127 27.7843C33.2071 27.968 33.3232 28.2196 33.3369 28.4866C33.3506 28.7537 33.2609 29.0158 33.0865 29.2185C32.912 29.4212 32.6662 29.5489 32.4 29.575L32.2933 29.58H7.70667C7.43924 29.5813 7.1816 29.4795 6.98726 29.2958C6.79293 29.1121 6.67684 28.8605 6.66311 28.5934C6.64938 28.3264 6.73907 28.0643 6.91354 27.8616C7.08801 27.6589 7.33385 27.5312 7.6 27.505L7.70667 27.5H7.70583ZM20 5.83337C25.2808 5.83337 28.2767 9.32921 28.7125 13.55H28.8458C32.2442 13.55 34.9992 16.2984 34.9992 19.6875C34.9992 23.0775 32.2442 25.825 28.8458 25.825H11.1542C7.755 25.825 5 23.0775 5 19.6875C5 16.2984 7.755 13.55 11.1533 13.55H11.2867C11.725 9.30087 14.7183 5.83337 20 5.83337ZM20 7.91254C16.4492 7.91254 13.3542 10.7859 13.3542 14.7542C13.3542 15.3834 12.8075 15.8775 12.1808 15.8775H10.9975C8.83583 15.8775 7.08333 17.6384 7.08333 19.8109C7.08333 21.9842 8.83583 23.7459 10.9975 23.7459H29.0025C31.1642 23.7459 32.9167 21.9842 32.9167 19.8117C32.9167 17.6384 31.1642 15.8767 29.0025 15.8767H27.8192C27.1925 15.8767 26.6458 15.3834 26.6458 14.755C26.6458 10.735 23.5508 7.91337 20 7.91337V7.91254Z" fill="white"/>
</svg>
