<svg width="30" height="30" viewBox="0 0 30 30" fill="none" xmlns="http://www.w3.org/2000/svg">
<path d="M2.5 15H15" stroke="white" stroke-width="2" stroke-linecap="round" stroke-linejoin="round"/>
<path d="M11.25 5V25" stroke="white" stroke-width="2" stroke-linecap="round" stroke-linejoin="round"/>
<path d="M3.75 11.25L7.5 15L3.75 18.75" stroke="white" stroke-width="2" stroke-linecap="round" stroke-linejoin="round"/>
<path d="M15 7.5L11.25 11.25L7.5 7.5" stroke="white" stroke-width="2" stroke-linecap="round" stroke-linejoin="round"/>
<path d="M7.5 22.5L11.25 18.75L13.125 20.625" stroke="white" stroke-width="2" stroke-linecap="round" stroke-linejoin="round"/>
<path d="M22.5 2.5C21.837 2.5 21.2011 2.76339 20.7322 3.23223C20.2634 3.70107 20 4.33696 20 5V18.125C19.0468 18.6753 18.3018 19.5248 17.8806 20.5417C17.4594 21.5586 17.3855 22.6861 17.6704 23.7492C17.9552 24.8124 18.583 25.7518 19.4562 26.4219C20.3294 27.0919 21.3993 27.4551 22.5 27.4551C23.6007 27.4551 24.6706 27.0919 25.5438 26.4219C26.417 25.7518 27.0448 24.8124 27.3296 23.7492C27.6145 22.6861 27.5406 21.5586 27.1194 20.5417C26.6982 19.5248 25.9532 18.6753 25 18.125V5C25 4.33696 24.7366 3.70107 24.2678 3.23223C23.7989 2.76339 23.163 2.5 22.5 2.5Z" stroke="white" stroke-width="2" stroke-linecap="round" stroke-linejoin="round"/>
</svg>
