<svg width="32" height="32" viewBox="0 0 32 32" fill="none" xmlns="http://www.w3.org/2000/svg">
<path d="M17 30C16.8296 29.9999 16.662 29.9563 16.5132 29.8733C16.3644 29.7902 16.2393 29.6706 16.1498 29.5256C16.0602 29.3806 16.0092 29.2152 16.0015 29.045C15.9938 28.8748 16.0298 28.7054 16.106 28.553L18.106 24.553C18.1621 24.4314 18.2421 24.3224 18.3412 24.2323C18.4403 24.1422 18.5565 24.073 18.6829 24.0287C18.8093 23.9844 18.9433 23.9659 19.077 23.9744C19.2106 23.9828 19.3412 24.018 19.461 24.0779C19.5808 24.1378 19.6873 24.2212 19.7743 24.323C19.8612 24.4249 19.9269 24.5431 19.9672 24.6708C20.0076 24.7985 20.0219 24.933 20.0093 25.0663C19.9968 25.1997 19.9575 25.3291 19.894 25.447L17.894 29.447C17.8111 29.6132 17.6836 29.753 17.5257 29.8507C17.3677 29.9484 17.1857 30.0001 17 30Z" fill="white"/>
<path d="M7.99995 30C7.82956 29.9999 7.66202 29.9563 7.51323 29.8733C7.36443 29.7902 7.23932 29.6706 7.14976 29.5256C7.0602 29.3806 7.00917 29.2152 7.0015 29.045C6.99383 28.8748 7.02979 28.7054 7.10595 28.553L9.10595 24.553C9.16212 24.4314 9.24213 24.3224 9.34124 24.2323C9.44035 24.1422 9.55654 24.073 9.68292 24.0287C9.80931 23.9844 9.9433 23.9659 10.077 23.9744C10.2106 23.9828 10.3412 24.018 10.461 24.0779C10.5808 24.1378 10.6873 24.2212 10.7743 24.323C10.8612 24.4249 10.9269 24.5431 10.9672 24.6708C11.0076 24.7985 11.0219 24.933 11.0093 25.0663C10.9968 25.1997 10.9575 25.3291 10.894 25.447L8.89395 29.447C8.81115 29.6132 8.6836 29.753 8.52567 29.8507C8.36773 29.9484 8.18567 30.0001 7.99995 30Z" fill="white"/>
<path d="M30 15.5C29.9929 14.0042 29.4727 12.5561 28.5262 11.3977C27.5797 10.2394 26.2644 9.44101 24.8 9.136C24.3738 7.11778 23.267 5.30736 21.6648 4.00817C20.0627 2.70897 18.0627 1.99996 16 1.99996C13.9372 1.99996 11.9372 2.70897 10.3351 4.00817C8.73294 5.30736 7.62606 7.11778 7.19995 9.136C5.86512 9.4066 4.64925 10.0903 3.72453 11.0902C2.79982 12.0902 2.21312 13.3557 2.04754 14.7076C1.88195 16.0595 2.14587 17.4292 2.80192 18.6227C3.45797 19.8163 4.47289 20.7732 5.70295 21.358L4.10595 24.553C4.04239 24.6709 4.00315 24.8003 3.99056 24.9336C3.97797 25.067 3.99229 25.2015 4.03267 25.3292C4.07306 25.4569 4.13867 25.5751 4.22564 25.677C4.3126 25.7788 4.41913 25.8622 4.53892 25.9221C4.6587 25.982 4.7893 26.0172 4.92295 26.0256C5.05661 26.0341 5.1906 26.0156 5.31698 25.9713C5.44336 25.927 5.55956 25.8578 5.65867 25.7677C5.75778 25.6776 5.83779 25.5686 5.89395 25.447L7.61695 22H14.382L13.106 24.553C13.0424 24.6709 13.0031 24.8003 12.9906 24.9336C12.978 25.067 12.9923 25.2015 13.0327 25.3292C13.0731 25.4569 13.1387 25.5751 13.2256 25.677C13.3126 25.7788 13.4191 25.8622 13.5389 25.9221C13.6587 25.982 13.7893 26.0172 13.923 26.0256C14.0566 26.0341 14.1906 26.0156 14.317 25.9713C14.4434 25.927 14.5596 25.8578 14.6587 25.7677C14.7578 25.6776 14.8378 25.5686 14.894 25.447L16.619 22H23.383L22.107 24.553C22.0434 24.6709 22.0041 24.8003 21.9916 24.9336C21.979 25.067 21.9933 25.2015 22.0337 25.3292C22.0741 25.4569 22.1397 25.5751 22.2266 25.677C22.3136 25.7788 22.4201 25.8622 22.5399 25.9221C22.6597 25.982 22.7903 26.0172 22.924 26.0256C23.0576 26.0341 23.1916 26.0156 23.318 25.9713C23.4444 25.927 23.5606 25.8578 23.6597 25.7677C23.7588 25.6776 23.8388 25.5686 23.895 25.447L25.84 21.557C27.063 21.0842 28.1146 20.2529 28.8569 19.172C29.5992 18.0912 29.9977 16.8112 30 15.5ZM23.5 20H8.49995C7.33559 20.0038 6.21515 19.5558 5.37436 18.7503C4.53357 17.9448 4.03798 16.8446 3.99186 15.6811C3.94574 14.5177 4.35269 13.3817 5.12708 12.5122C5.90148 11.6427 6.98294 11.1074 8.14395 11.019L8.95995 10.955L9.05895 10.143C9.26769 8.44901 10.0887 6.88983 11.3672 5.75915C12.6458 4.62847 14.2937 4.00434 16.0005 4.00434C17.7072 4.00434 19.3551 4.62847 20.6337 5.75915C21.9122 6.88983 22.7332 8.44901 22.942 10.143L23.041 10.955L23.856 11.019C25.017 11.1074 26.0984 11.6427 26.8728 12.5122C27.6472 13.3817 28.0542 14.5177 28.008 15.6811C27.9619 16.8446 27.4663 17.9448 26.6255 18.7503C25.7848 19.5558 24.6643 20.0038 23.5 20Z" fill="white"/>
</svg>
