<svg width="32" height="32" viewBox="0 0 32 32" fill="none" xmlns="http://www.w3.org/2000/svg">
<path d="M16.0444 29.8756C15.8087 29.8756 15.5826 29.7819 15.4159 29.6152C15.2492 29.4485 15.1555 29.2224 15.1555 28.9867V2.99556C15.1259 2.86538 15.1259 2.73019 15.1556 2.60003C15.1854 2.46987 15.2441 2.34809 15.3273 2.24371C15.4106 2.13934 15.5163 2.05507 15.6366 1.99715C15.7569 1.93923 15.8887 1.90915 16.0222 1.90915C16.1557 1.90915 16.2875 1.93923 16.4078 1.99715C16.5281 2.05507 16.6338 2.13934 16.7171 2.24371C16.8003 2.34809 16.859 2.46987 16.8887 2.60003C16.9185 2.73019 16.9185 2.86538 16.8889 2.99556V29.0044C16.8846 29.2296 16.7951 29.4448 16.6384 29.6065C16.4816 29.7682 16.2693 29.8643 16.0444 29.8756Z" fill="white"/>
<path d="M16.0533 8.95111L12.9067 5.81333C12.7411 5.64679 12.6482 5.4215 12.6482 5.18667C12.6482 4.95184 12.7411 4.72655 12.9067 4.56C13.0732 4.39444 13.2985 4.30152 13.5333 4.30152C13.7682 4.30152 13.9935 4.39444 14.16 4.56L16.0533 6.44444L17.9378 4.56C18.1043 4.39444 18.3296 4.30152 18.5645 4.30152C18.7993 4.30152 19.0246 4.39444 19.1911 4.56C19.3567 4.72655 19.4496 4.95184 19.4496 5.18667C19.4496 5.4215 19.3567 5.64679 19.1911 5.81333L16.0533 8.95111Z" fill="white"/>
<path d="M18.5333 27.7067C18.3001 27.7057 18.0767 27.6131 17.9111 27.4489L16 25.5644L14.1333 27.4489C13.9668 27.6144 13.7415 27.7074 13.5067 27.7074C13.2718 27.7074 13.0465 27.6144 12.88 27.4489C12.7967 27.3663 12.7306 27.2679 12.6854 27.1596C12.6403 27.0513 12.6171 26.9351 12.6171 26.8178C12.6171 26.7004 12.6403 26.5843 12.6854 26.4759C12.7306 26.3676 12.7967 26.2693 12.88 26.1867L16 23.0489L19.1467 26.1867C19.23 26.2693 19.2961 26.3676 19.3412 26.4759C19.3864 26.5843 19.4096 26.7004 19.4096 26.8178C19.4096 26.9351 19.3864 27.0513 19.3412 27.1596C19.2961 27.2679 19.23 27.3663 19.1467 27.4489C18.9833 27.611 18.7634 27.7034 18.5333 27.7067Z" fill="white"/>
<path d="M27.4845 23.5556C27.3287 23.5566 27.1755 23.5168 27.04 23.44L3.92891 10.1067C3.72619 9.98641 3.57954 9.79057 3.52119 9.5622C3.46285 9.33383 3.4976 9.09164 3.61779 8.88889C3.67661 8.78778 3.7548 8.69926 3.84788 8.62843C3.94097 8.55759 4.04712 8.50583 4.16026 8.4761C4.27339 8.44637 4.39128 8.43927 4.50716 8.45519C4.62305 8.47111 4.73465 8.50975 4.83557 8.56889L27.9467 21.9022C28.1179 21.9993 28.2521 22.1504 28.3282 22.3319C28.4043 22.5134 28.418 22.715 28.3672 22.9052C28.3163 23.0953 28.2038 23.2632 28.0473 23.3825C27.8908 23.5018 27.6991 23.5658 27.5022 23.5644L27.4845 23.5556Z" fill="white"/>
<path d="M5.33334 13.6622C5.09759 13.6929 4.85932 13.6286 4.67095 13.4836C4.48258 13.3386 4.35954 13.1246 4.32889 12.8889C4.29825 12.6531 4.36251 12.4149 4.50753 12.2265C4.65256 12.0381 4.86648 11.9151 5.10223 11.8844L7.68001 11.1911L6.96889 8.64889C6.93393 8.53484 6.92228 8.41491 6.93464 8.29625C6.947 8.1776 6.98312 8.06265 7.04084 7.95825C7.09857 7.85385 7.17672 7.76214 7.27063 7.68858C7.36455 7.61502 7.47231 7.56111 7.5875 7.53008C7.70269 7.49904 7.82294 7.49151 7.9411 7.50793C8.05926 7.52435 8.17291 7.56439 8.27527 7.62566C8.37763 7.68693 8.46661 7.76817 8.53691 7.86456C8.6072 7.96094 8.65738 8.07049 8.68445 8.18667L9.84001 12.4444L5.54667 13.6267C5.47772 13.6491 5.40582 13.661 5.33334 13.6622Z" fill="white"/>
<path d="M24.0444 24.48C23.8426 24.4864 23.6446 24.4238 23.483 24.3027C23.3214 24.1815 23.2059 24.0089 23.1555 23.8133L22.0444 19.5556L26.3289 18.4C26.4429 18.365 26.5629 18.3534 26.6815 18.3658C26.8002 18.3781 26.9151 18.4142 27.0195 18.472C27.1239 18.5297 27.2156 18.6078 27.2892 18.7017C27.3628 18.7957 27.4167 18.9034 27.4477 19.0186C27.4787 19.1338 27.4863 19.2541 27.4698 19.3722C27.4534 19.4904 27.4134 19.604 27.3521 19.7064C27.2908 19.8087 27.2096 19.8977 27.1132 19.968C27.0168 20.0383 26.9073 20.0885 26.7911 20.1156L24.2133 20.8089L24.9067 23.3867C24.9663 23.6141 24.9334 23.856 24.8151 24.0593C24.6968 24.2625 24.5028 24.4106 24.2755 24.4711C24.1996 24.4875 24.1214 24.4905 24.0444 24.48Z" fill="white"/>
<path d="M4.39108 23.5556C4.19426 23.5569 4.00255 23.4929 3.84602 23.3736C3.68949 23.2543 3.57698 23.0864 3.52614 22.8963C3.4753 22.7062 3.489 22.5045 3.5651 22.323C3.6412 22.1415 3.77539 21.9904 3.94663 21.8933L27.0577 8.56C27.2608 8.44337 27.5016 8.41156 27.728 8.47147C27.9543 8.53139 28.1479 8.6782 28.2666 8.88C28.3258 8.98092 28.3644 9.09253 28.3803 9.20841C28.3963 9.3243 28.3892 9.44219 28.3594 9.55532C28.3297 9.66845 28.2779 9.7746 28.2071 9.86769C28.1363 9.96078 28.0477 10.039 27.9466 10.0978L4.83552 23.4311C4.70091 23.511 4.5476 23.5539 4.39108 23.5556Z" fill="white"/>
<path d="M7.83111 24.48C7.75466 24.4935 7.67644 24.4935 7.59999 24.48C7.37274 24.4195 7.17873 24.2714 7.06044 24.0681C6.94215 23.8649 6.90923 23.623 6.96888 23.3956L7.66222 20.8178L5.08444 20.1244C4.96719 20.0958 4.85701 20.0435 4.76061 19.9709C4.66421 19.8983 4.58362 19.8068 4.52373 19.702C4.46385 19.5972 4.42594 19.4813 4.4123 19.3614C4.39867 19.2415 4.40961 19.12 4.44444 19.0044C4.47434 18.891 4.52643 18.7845 4.59769 18.6912C4.66894 18.598 4.75796 18.5198 4.85961 18.4611C4.96126 18.4024 5.07352 18.3645 5.18992 18.3494C5.30631 18.3343 5.42454 18.3425 5.53777 18.3733L9.83999 19.5556L8.68444 23.84C8.63059 24.0246 8.5183 24.1868 8.36444 24.3022C8.21057 24.4176 8.02343 24.48 7.83111 24.48Z" fill="white"/>
<path d="M26.56 13.6622C26.4834 13.6745 26.4054 13.6745 26.3289 13.6622L22.0444 12.4444L23.1911 8.15111C23.2142 8.02921 23.2625 7.9135 23.333 7.81141C23.4035 7.70932 23.4946 7.62312 23.6005 7.55836C23.7063 7.4936 23.8245 7.4517 23.9475 7.43538C24.0705 7.41905 24.1955 7.42864 24.3146 7.46355C24.4336 7.49846 24.544 7.5579 24.6387 7.63805C24.7334 7.7182 24.8103 7.81729 24.8644 7.92894C24.9185 8.04059 24.9486 8.16233 24.9528 8.28632C24.9571 8.41032 24.9353 8.53382 24.8889 8.64889L24.1955 11.2178L26.7733 11.9111C27.0091 11.9418 27.223 12.0648 27.368 12.2532C27.513 12.4415 27.5773 12.6798 27.5467 12.9156C27.516 13.1513 27.393 13.3652 27.2046 13.5102C27.0162 13.6553 26.778 13.7195 26.5422 13.6889L26.56 13.6622Z" fill="white"/>
</svg>
