<svg width="32" height="32" viewBox="0 0 32 32" fill="none" xmlns="http://www.w3.org/2000/svg">
<path d="M16 12.005C16.7911 12.005 17.5645 12.2396 18.2223 12.6791C18.8801 13.1187 19.3928 13.7434 19.6955 14.4743C19.9983 15.2052 20.0775 16.0094 19.9231 16.7854C19.7688 17.5613 19.3878 18.274 18.8284 18.8334C18.269 19.3928 17.5563 19.7738 16.7804 19.9281C16.0044 20.0825 15.2002 20.0033 14.4693 19.7005C13.7384 19.3978 13.1136 18.8851 12.6741 18.2273C12.2346 17.5695 12 16.7961 12 16.005C12.0013 14.9445 12.4232 13.9279 13.173 13.178C13.9229 12.4282 14.9395 12.0063 16 12.005ZM16 10.005C14.8133 10.005 13.6533 10.3569 12.6666 11.0162C11.6799 11.6755 10.9109 12.6125 10.4567 13.7089C10.0026 14.8053 9.88378 16.0117 10.1153 17.1755C10.3468 18.3394 10.9182 19.4085 11.7574 20.2476C12.5965 21.0868 13.6656 21.6582 14.8295 21.8897C15.9933 22.1212 17.1997 22.0024 18.2961 21.5483C19.3925 21.0942 20.3295 20.3251 20.9888 19.3384C21.6481 18.3517 22 17.1917 22 16.005C22 14.4137 21.3679 12.8876 20.2426 11.7624C19.1174 10.6371 17.5913 10.005 16 10.005Z" fill="white"/>
<path d="M5.39404 6.813L6.80804 5.39799L10.314 8.90399L8.90004 10.318L5.39404 6.813Z" fill="white"/>
<path d="M2 15.005H7V17.005H2V15.005Z" fill="white"/>
<path d="M5.39404 25.197L8.90004 21.691L10.314 23.106L6.80804 26.611L5.39404 25.197Z" fill="white"/>
<path d="M15 25.005H17V30.005H15V25.005Z" fill="white"/>
<path d="M21.687 23.106L23.101 21.691L26.607 25.197L25.193 26.611L21.687 23.106Z" fill="white"/>
<path d="M25 15.005H30V17.005H25V15.005Z" fill="white"/>
<path d="M21.687 8.90399L25.193 5.39799L26.607 6.813L23.101 10.318L21.687 8.90399Z" fill="white"/>
<path d="M15 2.005H17V7.00501H15V2.005Z" fill="white"/>
</svg>
