<svg width="32" height="32" viewBox="0 0 32 32" fill="none" xmlns="http://www.w3.org/2000/svg">
<path d="M13.952 20.9973L16.9333 17.68C17.1017 17.491 17.3355 17.3728 17.5876 17.3494C17.8396 17.326 18.0912 17.3991 18.2915 17.5539C18.4918 17.7087 18.626 17.9337 18.6669 18.1835C18.7078 18.4333 18.6524 18.6894 18.512 18.9L18.4213 19.0173L16.94 20.6653H19.9746C20.1514 20.6652 20.3251 20.7119 20.478 20.8007C20.6309 20.8895 20.7575 21.0172 20.8449 21.1709C20.9323 21.3246 20.9774 21.4987 20.9756 21.6755C20.9738 21.8523 20.9251 22.0255 20.8346 22.1773L20.7573 22.2893L16.4746 27.664C16.3175 27.862 16.0913 27.9932 15.8414 28.0312C15.5915 28.0692 15.3365 28.0111 15.1277 27.8687C14.9189 27.7263 14.7718 27.5101 14.7159 27.2635C14.66 27.017 14.6996 26.7585 14.8266 26.54L14.9106 26.4187L17.9 22.6653H14.696C14.5147 22.6654 14.3367 22.6162 14.1813 22.5229C14.0258 22.4297 13.8986 22.2959 13.8132 22.136C13.7279 21.976 13.6877 21.7958 13.6969 21.6148C13.706 21.4337 13.7642 21.2585 13.8653 21.108L13.952 20.9973L16.9333 17.68L13.952 20.9973ZM17.336 6.67733C21.56 6.67733 23.9573 9.47467 24.3053 12.852H24.412C25.0576 12.8511 25.6972 12.9775 26.294 13.2238C26.8909 13.4701 27.4334 13.8316 27.8905 14.2876C28.3476 14.7436 28.7105 15.2852 28.9582 15.8815C29.206 16.4777 29.3339 17.117 29.3346 17.7627C29.3337 18.4082 29.2057 19.0473 28.9579 19.6434C28.71 20.2395 28.3472 20.781 27.89 21.2369C27.4329 21.6927 26.8905 22.0541 26.2937 22.3003C25.697 22.5466 25.0575 22.6729 24.412 22.672L22.028 22.6733C22.2282 22.3782 22.3351 22.0296 22.3346 21.6729C22.3342 21.3162 22.2264 20.9679 22.0253 20.6733L24.3373 20.676C26.0186 20.676 27.3813 19.34 27.3813 17.6933C27.3813 16.0467 26.0186 14.712 24.3373 14.712H23.4173C22.9293 14.712 22.504 14.3387 22.504 13.8613C22.504 10.8147 20.0973 8.67467 17.336 8.67467C14.5733 8.67467 12.1666 10.8533 12.1666 13.8613C12.1666 14.3373 11.7413 14.712 11.2546 14.712H10.3346C8.65195 14.712 7.28929 16.0453 7.28929 17.6933C7.28929 19.34 8.65195 20.676 10.3333 20.676L12.6826 20.6747C12.4814 20.9692 12.3735 21.3175 12.373 21.6743C12.3725 22.031 12.4795 22.3796 12.68 22.6747L10.2586 22.672C9.61304 22.6729 8.97361 22.5466 8.37684 22.3003C7.78007 22.0541 7.23764 21.6927 6.78053 21.2369C6.32342 20.781 5.96057 20.2395 5.71271 19.6434C5.46485 19.0473 5.33683 18.4082 5.33595 17.7627C5.33665 17.117 5.46455 16.4777 5.71233 15.8815C5.96011 15.2852 6.32293 14.7436 6.78006 14.2876C7.23719 13.8316 7.77967 13.4701 8.37653 13.2238C8.97339 12.9775 9.61293 12.8511 10.2586 12.852H10.3653C10.716 9.452 13.112 6.67867 17.336 6.67867V6.67733ZM13.3333 2.66667C15.4893 2.66667 17.4 3.75333 18.5333 5.416C18.136 5.3685 17.7361 5.3449 17.336 5.34533C16.8093 5.34533 16.3026 5.384 15.8173 5.45867C15.2272 5.04042 14.541 4.77804 13.8224 4.69588C13.1037 4.61372 12.376 4.71444 11.7067 4.9887C11.0374 5.26295 10.4483 5.70186 9.99397 6.26466C9.53965 6.82746 9.23488 7.49593 9.10795 8.208L9.01062 8.76C8.95636 9.06891 8.79494 9.34881 8.55474 9.55048C8.31453 9.75215 8.01092 9.86269 7.69729 9.86267H7.04395C6.57414 9.86217 6.11473 10.001 5.72378 10.2615C5.33284 10.5221 5.02791 10.8927 4.84754 11.3265C4.66717 11.7603 4.61945 12.2378 4.71042 12.6987C4.80139 13.1596 5.02696 13.5833 5.35862 13.916C4.93862 14.4493 4.60529 15.056 4.37862 15.712C3.66978 15.1683 3.1443 14.4208 2.87279 13.5697C2.60128 12.7186 2.59674 11.8049 2.85977 10.9512C3.12281 10.0974 3.64083 9.34469 4.34423 8.79401C5.04764 8.24333 5.90273 7.92112 6.79462 7.87067L7.13729 7.86267C7.39511 6.40668 8.15736 5.08797 9.29033 4.13786C10.4233 3.18774 11.8547 2.66689 13.3333 2.66667Z" fill="white"/>
</svg>
