<svg width="18" height="18" viewBox="0 0 18 18" fill="none" xmlns="http://www.w3.org/2000/svg">
<path d="M14.0517 7.39786C14.3395 7.38953 14.6261 7.43903 14.8945 7.54343C15.1628 7.64783 15.4075 7.805 15.614 8.00565C15.8206 8.2063 15.9848 8.44633 16.0969 8.71156C16.209 8.97679 16.2668 9.26181 16.2668 9.54976C16.2668 9.83771 16.209 10.1227 16.0969 10.388C15.9848 10.6532 15.8206 10.8932 15.614 11.0939C15.4075 11.2945 15.1628 11.4517 14.8945 11.5561C14.6261 11.6605 14.3395 11.71 14.0517 11.7017H14.0319L13.9509 11.7071H12.8664C13.0644 12.0122 13.1787 12.3749 13.1787 12.7646C13.1787 13.8581 12.357 14.732 11.2725 14.732C10.1943 14.732 9.54991 14.1074 9.37531 13.2353C9.35546 13.1198 9.38142 13.0011 9.44768 12.9045C9.51394 12.8079 9.61526 12.7409 9.73012 12.7178C9.84498 12.6948 9.96431 12.7174 10.0628 12.7809C10.1612 12.8444 10.231 12.9438 10.2573 13.058C10.3536 13.5377 10.6578 13.832 11.2725 13.832C11.8476 13.832 12.2787 13.373 12.2787 12.7646C12.2787 12.1796 11.7963 11.7026 11.1987 11.7026L2.25451 11.7071C2.14206 11.7073 2.0336 11.6654 1.9505 11.5896C1.86741 11.5138 1.81568 11.4097 1.80552 11.2977C1.79536 11.1857 1.8275 11.074 1.89561 10.9845C1.96372 10.895 2.06286 10.8343 2.17351 10.8143L2.25451 10.8071H11.1375L11.1987 10.8017C11.2464 10.8017 11.2932 10.8035 11.34 10.8071H13.9518L13.9707 10.8089L14.0517 10.8017C14.7033 10.8017 15.2388 10.3058 15.2991 9.67036L15.3054 9.55066C15.3157 9.21852 15.1936 8.8959 14.966 8.65378C14.7384 8.41166 14.4239 8.26987 14.0918 8.25961C13.9273 8.25453 13.7634 8.28189 13.6096 8.34013C13.4557 8.39837 13.3148 8.48635 13.1949 8.59905C12.9528 8.82665 12.811 9.14111 12.8007 9.47326C12.7913 9.59068 12.7362 9.69973 12.6473 9.77699C12.5584 9.85426 12.4427 9.89358 12.3251 9.88651C12.2076 9.87944 12.0974 9.82655 12.0184 9.73918C11.9394 9.65182 11.8978 9.53696 11.9025 9.41926C11.9362 8.87216 12.1773 8.35851 12.5767 7.98306C12.976 7.60761 13.5036 7.39864 14.0517 7.39876V7.39786ZM8.78851 9.01246H2.25451C2.14206 9.01267 2.0336 8.97076 1.9505 8.895C1.86741 8.81924 1.81568 8.71511 1.80552 8.60312C1.79536 8.49113 1.8275 8.37939 1.89561 8.28991C1.96372 8.20043 2.06286 8.13969 2.17351 8.11966L2.25451 8.11246H8.78851C9.1856 8.11246 9.57377 7.99472 9.90395 7.77413C10.2341 7.55354 10.4915 7.24 10.6435 6.87316C10.7955 6.50631 10.8353 6.10264 10.7579 5.71317C10.6805 5.3237 10.4893 4.96592 10.2086 4.68508C9.92791 4.40423 9.57022 4.21293 9.18078 4.13535C8.79135 4.05777 8.38766 4.09741 8.02074 4.24924C7.65383 4.40108 7.34018 4.6583 7.11944 4.98837C6.8987 5.31845 6.78079 5.70657 6.78061 6.10366C6.78061 6.22301 6.7332 6.33747 6.64881 6.42186C6.56442 6.50625 6.44996 6.55366 6.33061 6.55366C6.21126 6.55366 6.0968 6.50625 6.01241 6.42186C5.92802 6.33747 5.88061 6.22301 5.88061 6.10366C5.88081 5.5362 6.04703 4.98121 6.3588 4.50706C6.67056 4.03292 7.11424 3.66036 7.63515 3.43529C8.15606 3.21022 8.73144 3.14248 9.29038 3.24042C9.84932 3.33835 10.3674 3.59769 10.7807 3.98646C11.1941 4.37523 11.4847 4.87645 11.6167 5.42834C11.7486 5.98023 11.7163 6.55868 11.5235 7.0924C11.3308 7.62612 10.9861 8.09178 10.5319 8.43199C10.0778 8.77221 9.53399 8.97211 8.96761 9.00706L8.78851 9.01246H2.25451H8.78851Z" fill="white"/>
</svg>
